<svg width="145" height="166" viewBox="0 0 145 166" fill="none" xmlns="http://www.w3.org/2000/svg">
<path d="M72.5 166C64.6994 162.79 59.0401 159.045 55.5221 154.765C52.0042 150.332 50.2453 144.83 50.2453 138.257C50.2453 130.614 52.4631 122.513 56.8987 113.953C59.193 109.52 61.105 105.699 62.6345 102.489C64.164 99.1261 65.3112 96.2983 66.0759 94.0055C62.558 97.8269 58.5047 103.483 53.9161 110.972C44.586 126.105 34.0322 133.671 22.2547 133.671C15.8307 133.671 8.5654 130.614 0.458861 124.5L0 116.704C0 109.215 1.68249 103.253 5.04747 98.8205C8.5654 94.2348 13.154 90.872 18.8133 88.7321C24.4726 86.5921 30.6672 85.3693 37.3972 85.0635C47.4921 84.605 54.8339 83.9171 59.4225 83C57.2811 82.6943 54.2985 82.3122 50.4747 81.8536C46.8038 81.395 42.3681 81.0893 37.1677 80.9365C30.2848 80.6308 24.0137 79.4079 18.3544 77.268C12.6951 74.9751 8.18302 71.6123 4.81804 67.1796C1.60601 62.5939 0 56.6326 0 49.2956L0.458861 41.5C9.02426 35.233 16.4425 32.0995 22.7136 32.0995C27.7611 32.0995 33.038 33.9337 38.5443 37.6022C44.2036 41.2707 49.404 46.9263 54.1456 54.5691C56.5928 58.3904 58.7342 61.7532 60.5696 64.6575C62.558 67.4089 64.317 69.7017 65.8465 71.5359C65.2347 69.396 64.0876 66.721 62.4051 63.5111C60.8755 60.3011 59.0401 56.4797 56.8987 52.047C52.4631 43.1814 50.2453 35.0801 50.2453 27.7431C50.2453 21.4761 51.9277 16.1262 55.2927 11.6934C58.8107 7.2606 64.5464 3.3628 72.5 0C80.6065 3.51565 86.3423 7.48987 89.7073 11.9227C93.0723 16.2026 94.7547 21.4761 94.7547 27.7431C94.7547 35.233 92.5369 43.2578 88.1013 51.8177C85.807 56.0976 83.895 59.919 82.3655 63.2818C80.836 66.6446 79.6888 69.4724 78.924 71.7652C81.8302 68.4024 85.807 62.8232 90.8544 55.0276C95.7489 47.3849 100.873 41.6529 106.226 37.8315C111.733 34.0101 117.086 32.0995 122.286 32.0995C128.557 32.0995 135.976 35.233 144.541 41.5L145 49.2956C145 56.9383 143.241 63.0525 139.723 67.6381C136.205 72.0709 131.617 75.3573 125.957 77.4972C120.298 79.4843 114.18 80.6308 107.603 80.9365C97.8138 81.395 90.3956 82.0829 85.3481 83C87.6424 83.4586 90.3956 83.8407 93.6076 84.1464C96.8196 84.4521 100.338 84.6814 104.161 84.8343C112.115 84.9871 119.074 86.0571 125.04 88.0442C131.158 90.0313 135.976 93.2413 139.494 97.674C143.165 102.26 145 108.603 145 116.704L144.541 124.5C136.588 130.614 129.322 133.671 122.745 133.671C117.086 133.671 111.58 131.913 106.226 128.398C101.026 124.729 96.0549 119.074 91.3133 111.431C86.5717 103.788 82.3655 97.9033 78.6946 93.7762C79.4594 96.2219 80.6065 99.1261 82.1361 102.489C83.6656 105.852 85.5775 109.75 87.8718 114.182C92.4604 122.895 94.7547 130.92 94.7547 138.257C94.7547 144.677 92.9958 150.103 89.4778 154.536C86.1129 158.816 80.4536 162.637 72.5 166ZM70.6646 76.3508H72.5V5.27348C66.3819 8.02486 61.9462 11.1584 59.193 14.674C56.5928 18.0368 55.2927 22.3932 55.2927 27.7431C55.2927 30.953 55.9045 34.5451 57.1282 38.5193C58.3518 42.4936 60.1108 46.9263 62.4051 51.8177C66.9937 61.4475 69.7468 69.6252 70.6646 76.3508ZM78.0063 79.7901L139.953 44.2514C133.528 39.6658 127.793 37.3729 122.745 37.3729C118.004 37.3729 113.262 39.0543 108.521 42.4171C103.779 45.7799 98.7315 51.5884 93.3782 59.8425C90.625 64.1225 87.8718 67.791 85.1187 70.8481C82.3655 73.7523 79.6888 76.2744 77.0886 78.4144L78.0063 79.7901ZM65.8465 81.395L66.7642 79.7901L5.04747 44.2514L4.81804 49.9834C4.81804 58.6961 7.87711 65.0396 13.9953 69.0138C20.2664 72.8352 28.9082 75.2044 39.9209 76.1216C45.4272 76.5801 50.3217 77.268 54.6044 78.1851C59.0401 78.9494 62.7874 80.0193 65.8465 81.395ZM139.953 121.978L140.182 118.309V116.246C140.182 107.227 136.893 100.655 130.316 96.5276C123.892 92.4006 115.251 90.1077 104.391 89.6492C93.6841 89.1906 85.1951 87.5856 78.924 84.8343L78.0063 86.2099L139.953 121.978ZM22.2547 128.627C31.1261 128.627 39.462 122.895 47.2627 111.431C55.2162 99.9669 62.0227 92.0948 67.682 87.8149L66.7642 86.4392L5.04747 121.978C11.3186 126.411 17.0543 128.627 22.2547 128.627ZM72.5 160.727C78.6181 157.975 82.9773 154.918 85.5775 151.555C88.3307 148.04 89.7073 143.607 89.7073 138.257C89.7073 131.684 87.413 123.583 82.8244 113.953C80.5301 109.062 78.6181 104.629 77.0886 100.655C75.712 96.5276 74.7943 92.7827 74.3354 89.4199H72.5V160.727Z" fill="black"/>
</svg>
